<?xml version="1.0" standalone="no"?>
<!DOCTYPE svg PUBLIC "-//W3C//DTD SVG 20010904//EN"
 "http://www.w3.org/TR/2001/REC-SVG-20010904/DTD/svg10.dtd">
<svg version="1.0" xmlns="http://www.w3.org/2000/svg"
 width="454.000000pt" height="454.000000pt" viewBox="0 0 454.000000 454.000000"
 preserveAspectRatio="xMidYMid meet">
<metadata>
Created by potrace 1.14, written by Peter Selinger 2001-2017
</metadata>
<g transform="translate(0.000000,454.000000) scale(0.100000,-0.100000)"
fill="#000000" stroke="none">
<path d="M2106 4162 c-4 -7 -46 -12 -128 -16 -14 0 -24 -5 -21 -10 3 -5 0 -6
-8 -4 -8 3 -27 1 -44 -4 -16 -5 -45 -11 -64 -14 -19 -3 -45 -10 -58 -15 -13
-5 -23 -6 -23 -3 0 2 -14 -3 -30 -11 -17 -9 -35 -13 -40 -10 -6 3 -10 1 -10
-4 0 -6 -3 -10 -7 -9 -14 4 -88 -24 -95 -36 -5 -7 -8 -6 -8 4 0 10 -3 11 -8 4
-6 -10 -79 -46 -107 -53 -5 -2 -19 -8 -30 -14 -11 -6 -23 -10 -27 -9 -5 1 -8
-2 -8 -7 0 -5 -21 -19 -46 -32 -79 -40 -84 -43 -84 -52 0 -4 -4 -5 -10 -2 -5
3 -10 1 -10 -6 0 -7 -3 -10 -6 -6 -3 3 -14 -2 -24 -11 -35 -32 -50 -43 -50
-37 0 4 -6 0 -14 -7 -25 -24 -66 -58 -74 -60 -4 -2 -6 -6 -5 -10 2 -5 -1 -8
-5 -8 -17 0 -142 -115 -142 -130 0 -6 -3 -9 -7 -7 -5 2 -18 -7 -30 -20 -12
-13 -20 -23 -18 -23 2 0 -12 -16 -31 -36 -19 -20 -34 -41 -34 -46 0 -5 -4 -6
-10 -3 -6 3 -10 -4 -10 -16 0 -12 -3 -19 -6 -16 -6 5 -33 -30 -79 -102 -5 -9
-14 -19 -20 -23 -7 -5 -7 -8 0 -8 6 0 2 -5 -8 -11 -9 -6 -15 -14 -12 -20 4 -5
1 -9 -4 -9 -6 0 -11 -7 -11 -15 0 -8 -5 -15 -11 -15 -5 0 -8 -4 -5 -9 3 -5 -1
-14 -9 -21 -8 -7 -12 -16 -10 -21 3 -4 -3 -12 -12 -18 -10 -6 -15 -11 -11 -11
4 0 -1 -16 -13 -36 -11 -20 -18 -39 -15 -42 3 -3 -1 -10 -9 -16 -9 -6 -17 -22
-20 -36 -3 -14 -9 -26 -15 -28 -6 -2 -8 -8 -5 -13 7 -10 -13 -50 -29 -61 -8
-5 -7 -8 2 -8 9 0 9 -7 -3 -30 -9 -16 -13 -30 -9 -30 4 0 1 -6 -5 -13 -6 -8
-8 -17 -4 -20 3 -4 2 -7 -4 -7 -5 0 -9 -13 -8 -30 1 -16 -2 -27 -7 -24 -4 3
-8 -3 -9 -13 0 -10 -3 -27 -6 -38 -2 -11 -6 -31 -8 -45 -2 -14 -4 -27 -5 -30
-1 -3 -2 -9 -1 -14 1 -4 -4 -14 -10 -22 -9 -11 -8 -14 2 -14 10 0 11 -2 2 -8
-7 -4 -13 -35 -14 -70 -1 -34 -5 -62 -8 -62 -11 0 -8 -225 3 -232 8 -6 8 -8 0
-8 -6 0 -11 -13 -11 -30 0 -16 3 -30 7 -30 3 0 6 -12 6 -27 2 -79 8 -139 15
-148 4 -6 8 -20 8 -30 1 -37 4 -55 10 -55 3 0 7 -11 7 -25 1 -14 5 -33 9 -43
5 -9 9 -26 9 -37 1 -11 7 -30 13 -41 7 -12 10 -24 7 -26 -2 -3 2 -18 11 -34 8
-16 15 -37 15 -46 0 -9 5 -20 10 -23 6 -3 10 -17 10 -31 0 -13 5 -24 10 -24 6
0 10 -5 10 -11 0 -6 13 -38 29 -69 16 -32 27 -61 24 -64 -4 -3 -1 -6 5 -6 7 0
12 -4 12 -9 0 -13 73 -135 82 -139 5 -2 8 -8 8 -14 0 -11 57 -88 75 -100 5 -4
6 -8 2 -8 -5 0 -2 -6 5 -13 7 -8 31 -35 53 -61 71 -85 102 -116 114 -116 7 0
10 -4 7 -8 -3 -4 11 -21 31 -38 20 -16 48 -40 63 -54 15 -14 39 -34 55 -45 15
-11 41 -32 58 -48 18 -15 37 -27 44 -27 7 0 13 -4 13 -10 0 -5 6 -10 14 -10 8
0 21 -8 28 -17 7 -10 19 -19 26 -21 7 -1 30 -13 51 -27 21 -13 42 -21 45 -18
3 4 6 2 6 -3 0 -6 16 -16 35 -24 19 -8 35 -17 35 -21 0 -4 11 -6 25 -5 13 2
23 -2 22 -8 -1 -6 8 -12 21 -14 12 -2 20 -8 16 -13 -3 -5 -2 -9 3 -8 17 4 83
-14 83 -22 0 -5 3 -8 8 -8 4 1 9 1 12 -1 3 -1 15 -3 27 -6 44 -8 48 -9 60 -21
7 -6 22 -10 33 -8 11 2 20 -1 20 -6 0 -6 5 -7 10 -4 6 3 16 3 22 -1 7 -5 19
-9 28 -10 8 -1 29 -5 45 -9 17 -4 44 -8 60 -10 17 -2 30 -4 30 -5 0 -2 61 -9
103 -11 12 -1 22 -7 22 -13 0 -6 4 -5 9 3 6 9 11 10 15 2 5 -8 13 -8 27 -1 10
6 19 7 19 3 0 -5 41 -9 90 -9 56 0 90 4 90 10 0 6 4 5 9 -3 6 -9 10 -10 16 -2
5 9 10 9 21 0 11 -9 14 -9 14 1 0 9 4 9 17 -1 9 -8 14 -9 10 -3 -4 7 11 11 45
13 29 1 56 7 60 14 6 9 8 8 8 -3 0 -13 1 -13 10 0 8 12 10 12 10 1 0 -10 3
-11 13 -3 7 6 22 11 32 11 38 1 55 4 55 11 0 4 10 7 23 7 12 0 42 5 67 13 25
7 51 13 58 13 6 0 12 5 12 10 0 6 3 7 6 4 4 -3 15 -2 26 4 17 9 33 14 74 23 7
1 19 8 28 15 9 7 16 11 16 7 0 -3 23 5 50 19 27 14 50 22 50 18 0 -5 4 -3 8 2
6 9 99 61 159 89 13 6 23 14 23 19 0 4 7 7 15 7 7 0 19 8 24 18 6 9 11 13 11
8 0 -4 20 8 44 28 24 20 47 36 50 36 7 0 20 11 89 75 26 25 49 45 52 45 6 1
107 100 102 100 -2 0 17 23 43 50 26 28 60 69 76 93 16 23 35 46 41 50 7 4 13
12 13 18 0 5 9 19 20 31 10 12 17 24 15 28 -3 5 2 11 11 14 8 3 12 10 9 16 -3
5 -3 10 2 10 4 0 13 10 19 23 35 71 70 133 78 138 5 4 6 14 3 22 -3 9 1 18 9
21 9 3 13 10 10 15 -4 5 1 17 10 25 8 9 13 16 9 16 -3 0 1 13 9 29 9 16 12 31
9 35 -4 3 -2 6 4 6 5 0 10 6 11 13 1 14 10 51 12 55 2 1 3 5 4 10 1 4 7 16 13
27 6 11 9 29 7 40 -1 11 2 22 7 26 6 3 11 22 12 42 1 21 5 37 9 37 4 0 7 8 7
18 2 57 5 82 11 82 3 0 6 10 7 23 2 54 8 83 18 89 6 5 5 8 -3 8 -9 0 -10 5 -3
18 5 10 6 24 1 32 -5 8 -5 21 1 32 11 20 8 40 -6 50 -7 5 -6 8 1 8 12 0 13
108 1 127 -4 6 -2 15 4 19 8 4 7 9 -2 15 -12 7 -12 9 0 9 11 0 11 3 0 17 -12
15 -12 16 1 8 12 -7 13 -6 4 6 -6 8 -12 36 -13 63 -1 28 -5 54 -8 60 -4 5 -8
32 -10 60 -2 28 -7 53 -11 56 -4 3 -7 12 -7 20 1 8 -4 29 -10 45 -7 17 -10 35
-8 42 2 6 0 14 -6 17 -6 4 -8 13 -4 21 3 8 -1 15 -8 15 -7 0 -9 3 -6 7 4 3 2
12 -4 19 -6 8 -9 21 -5 29 3 9 -1 18 -9 21 -8 4 -13 9 -10 13 2 4 -3 20 -10
35 -8 16 -13 32 -10 36 3 5 2 10 -2 12 -8 3 -39 64 -64 126 -8 17 -17 32 -21
32 -5 0 -7 3 -7 8 3 19 -2 33 -11 27 -5 -3 -10 2 -10 13 0 18 -57 114 -72 120
-5 2 -8 10 -8 18 0 8 -7 17 -15 20 -8 4 -13 9 -10 13 2 4 -5 14 -16 21 -10 8
-19 18 -19 22 0 8 -35 51 -77 94 -13 13 -23 26 -23 29 0 5 -85 90 -139 138
-17 15 -36 27 -42 27 -5 0 -8 4 -5 8 3 5 -8 16 -25 26 -16 9 -29 22 -29 27 0
6 -4 7 -10 4 -5 -3 -10 -1 -10 4 0 6 -7 11 -16 11 -8 0 -13 4 -10 9 3 5 -8 14
-24 21 -17 7 -30 16 -30 21 0 5 -7 9 -15 9 -8 0 -15 5 -15 10 0 6 -5 10 -10
10 -6 0 -35 16 -65 35 -30 19 -55 32 -55 28 0 -3 -8 1 -17 9 -10 9 -29 19 -43
23 -13 4 -30 14 -38 21 -7 8 -18 12 -23 9 -5 -4 -9 -1 -9 5 0 7 -7 10 -15 6
-8 -3 -15 -1 -15 5 0 6 -4 7 -10 4 -5 -3 -10 -1 -10 5 0 6 -4 8 -10 5 -5 -3
-10 -1 -10 4 0 6 -3 10 -7 9 -5 -1 -33 6 -63 17 -30 11 -58 19 -62 20 -3 0 -9
3 -13 7 -4 4 -13 4 -21 1 -8 -3 -14 0 -14 7 0 6 -8 10 -17 8 -10 -1 -23 1 -29
4 -6 4 -25 9 -43 10 -17 1 -31 7 -31 13 0 5 -5 3 -10 -5 -9 -13 -10 -13 -10 0
0 11 -9 15 -27 14 -16 -1 -34 4 -42 10 -12 9 -13 8 -6 -4 7 -12 6 -13 -6 -4
-8 6 -36 12 -64 13 -27 1 -52 7 -56 13 -4 7 -9 7 -13 -1 -4 -6 -13 -8 -19 -4
-17 11 -57 11 -63 1 -3 -5 -11 -5 -17 0 -14 10 -172 10 -183 -1 -4 -3 -15 -2
-25 3 -10 6 -20 6 -23 2z"/>
</g>
</svg>
